<?xml version="1.0" encoding="UTF-8"?>
<svg version="1.1" xmlns="http://www.w3.org/2000/svg" width="443" height="420">
<path d="M0 0 C2.43749917 2.18586212 4.82990498 4.41385114 7.22265625 6.6484375 C8.7828604 8.0052487 10.34531169 9.35948084 11.91015625 10.7109375 C16.06704492 14.41725432 19.71255037 18.32887324 23.22265625 22.6484375 C23.97160156 23.55980469 24.72054688 24.47117188 25.4921875 25.41015625 C55.34707324 62.88156402 68.53392446 109.94650793 63.27734375 157.47973633 C58.85347249 192.01968573 44.23899438 224.5474355 21.22265625 250.6484375 C20.79629883 251.13505859 20.36994141 251.62167969 19.93066406 252.12304688 C-0.61438298 275.46364028 -26.92235213 293.41973702 -56.77734375 302.6484375 C-57.49245117 302.87080078 -58.20755859 303.09316406 -58.94433594 303.32226562 C-105.05012452 317.29130472 -153.23296413 311.64680972 -195.55957031 289.265625 C-203.46223912 284.96528949 -210.74377227 280.24891879 -217.77734375 274.6484375 C-218.32003906 274.21708496 -218.86273438 273.78573242 -219.421875 273.34130859 C-238.15159177 258.32354096 -253.19075446 240.72001782 -264.77734375 219.6484375 C-265.11572266 219.04805664 -265.45410156 218.44767578 -265.80273438 217.82910156 C-287.51988507 178.94169884 -291.50299547 131.06222197 -279.81005859 88.44970703 C-279.15456417 86.17520319 -278.47545136 83.91020499 -277.77734375 81.6484375 C-277.57302734 80.98602051 -277.36871094 80.32360352 -277.15820312 79.64111328 C-271.3233602 61.37249794 -261.77344306 43.59477812 -249.77734375 28.6484375 C-249.34067383 28.1004248 -248.90400391 27.55241211 -248.45410156 26.98779297 C-218.65172146 -10.07744218 -176.06497118 -33.68210203 -128.73828125 -38.84765625 C-82.82894217 -43.12759628 -35.43412573 -30.00188986 0 0 Z M-199.08984375 47.7734375 C-208.89482834 57.21585835 -213.530187 68.70843777 -213.8671875 82.26171875 C-213.25751686 96.56552984 -208.23187583 106.9981002 -197.77734375 116.6484375 C-188.12396241 125.47438616 -176.47721835 128.19109166 -163.71484375 127.89453125 C-152.39915157 127.18730049 -141.07563951 122.02212979 -133.3359375 113.6328125 C-123.90274551 101.62263322 -120.74203406 89.74916884 -121.77734375 74.6484375 C-123.43430187 65.65494796 -126.97405685 58.65454242 -132.77734375 51.6484375 C-133.2775 51.01292969 -133.77765625 50.37742187 -134.29296875 49.72265625 C-141.78168073 41.19384538 -153.21377488 36.83891024 -164.26953125 35.73828125 C-177.77090265 35.39247775 -188.70511623 39.14299276 -199.08984375 47.7734375 Z M-51.58984375 113.3359375 C-58.85410876 122.28956646 -59.94132985 132.42516098 -58.77734375 143.6484375 C-56.75269285 153.35603518 -49.8171912 161.19892965 -41.71484375 166.6484375 C-33.11256835 171.44064997 -23.19341877 171.99650132 -13.71484375 169.5859375 C-4.16629371 166.32212469 2.51886631 160.49715125 7.22265625 151.6484375 C7.56167969 151.05804688 7.90070313 150.46765625 8.25 149.859375 C11.98825006 142.03833569 11.56156259 130.32246874 8.78515625 122.2734375 C3.81164983 111.97983885 -4.22207244 105.64351924 -14.77734375 101.6484375 C-28.8999636 98.18680286 -41.65031046 103.01574123 -51.58984375 113.3359375 Z M-152.77734375 195.6484375 C-153.39351562 196.17308594 -154.0096875 196.69773438 -154.64453125 197.23828125 C-162.10424631 204.04166945 -166.22698328 213.42808426 -167.11328125 223.4453125 C-167.25181363 237.46478985 -163.88950748 247.924035 -154.12109375 258.4296875 C-145.04762482 266.81836632 -134.04077091 270.02612222 -121.90234375 269.5859375 C-109.76277835 268.41411394 -100.98249902 263.59951597 -92.77734375 254.6484375 C-85.12926542 245.27024419 -82.1338484 234.68077218 -82.9921875 222.6328125 C-84.51776695 211.29993655 -89.32198545 202.36469105 -97.77734375 194.6484375 C-100.9652756 192.29348139 -104.2227361 190.39495338 -107.77734375 188.6484375 C-108.80408203 188.13796875 -108.80408203 188.13796875 -109.8515625 187.6171875 C-124.11487958 181.74885133 -141.57753627 185.58800438 -152.77734375 195.6484375 Z " fill="#FD3332" transform="translate(331.77734375,45.3515625)"/>
<path d="M0 0 C6.41020295 -0.30999254 11.36277679 1.24494394 16.17578125 5.59375 C21.43582768 11.43824603 22.16768459 17.51624669 22.0078125 25.10546875 C21.0461505 33.13281578 16.83283956 38.92553387 10.60546875 43.86328125 C5.16851539 47.56343007 -0.03918669 47.50325152 -6.36328125 47.203125 C-7.08257812 47.20828125 -7.801875 47.2134375 -8.54296875 47.21875 C-12.61492762 47.06509117 -14.2020785 46.36571743 -17.08203125 43.4609375 C-20.6325077 38.15753161 -19.86002752 32.27843841 -19.61328125 26.140625 C-19.55175801 23.83734872 -19.49432963 21.53395867 -19.44140625 19.23046875 C-19.4043457 18.21718506 -19.36728516 17.20390137 -19.32910156 16.15991211 C-19.36471936 13.07871786 -19.85423887 10.23647787 -20.36328125 7.203125 C-19.80078125 4.390625 -19.80078125 4.390625 -18.36328125 2.203125 C-15.86328125 1.453125 -15.86328125 1.453125 -12.36328125 1.203125 C-11.60402344 1.11417969 -10.84476563 1.02523438 -10.0625 0.93359375 C-6.71386477 0.54300644 -3.35842312 0.28865785 0 0 Z M-6.36328125 14.203125 C-8.10768904 21.31494139 -7.45533667 28.9205182 -7.36328125 36.203125 C-4.82170084 36.93926985 -3.55784993 37.24802547 -0.92578125 36.640625 C2.99154742 34.44309916 5.61435118 31.24786013 7.63671875 27.203125 C7.78487315 25.24862656 7.85796724 23.2880197 7.88671875 21.328125 C7.9125 20.27882813 7.93828125 19.22953125 7.96484375 18.1484375 C7.59840945 14.85925345 6.97353695 13.51251576 4.63671875 11.203125 C0.13726992 10.51842626 -2.97855063 11.10851414 -6.36328125 14.203125 Z " fill="#FD4242" transform="translate(155.36328125,366.796875)"/>
<path d="M0 0 C0.77601563 0.00386719 1.55203125 0.00773437 2.3515625 0.01171875 C4.375 0.3125 4.375 0.3125 6.375 2.3125 C6.5750479 5.12317304 6.65476061 7.8331098 6.640625 10.64453125 C6.64349518 11.88767342 6.64349518 11.88767342 6.64642334 13.15592957 C6.6477858 14.91198021 6.64408514 16.66804091 6.63574219 18.42407227 C6.62508388 21.10391108 6.63561423 23.78307331 6.6484375 26.46289062 C6.64711512 28.16927231 6.6445511 29.87565357 6.640625 31.58203125 C6.64467346 32.38115433 6.64872192 33.1802774 6.65289307 34.00361633 C6.61803893 38.17194304 6.4725858 41.58749202 4.375 45.3125 C1.13346834 47.4735211 0.13807099 47.95497553 -3.625 47.3125 C-6.89442334 44.29547379 -7.60285762 42.82630393 -7.796875 38.32421875 C-7.67824081 36.88083616 -7.53704963 35.43915506 -7.375 34 C-7.27638672 32.88915039 -7.27638672 32.88915039 -7.17578125 31.75585938 C-7.01172618 29.93953541 -6.82101656 28.12565314 -6.625 26.3125 C-13.06 27.7975 -13.06 27.7975 -19.625 29.3125 C-19.728125 31.189375 -19.83125 33.06625 -19.9375 35 C-20.19013802 39.59801196 -20.82696799 42.59084578 -23.625 46.3125 C-26.0625 46.875 -26.0625 46.875 -28.625 46.3125 C-31.03211 44.65200396 -32.41860001 43.33184857 -33.01135254 40.40441895 C-33.18527003 37.98673967 -33.23088894 35.59583047 -33.234375 33.171875 C-33.25091125 32.28969299 -33.26744751 31.40751099 -33.28448486 30.49859619 C-33.33299194 27.6864935 -33.35434155 24.87493168 -33.375 22.0625 C-33.40315746 20.15361858 -33.43308457 18.24476239 -33.46484375 16.3359375 C-33.53875154 11.66150286 -33.58830955 6.98736894 -33.625 2.3125 C-31.29813547 1.14906773 -29.77778587 1.11354012 -27.1875 1.0625 C-26.40503906 1.03671875 -25.62257813 1.0109375 -24.81640625 0.984375 C-22.625 1.3125 -22.625 1.3125 -20.8515625 2.41015625 C-19.01234961 5.26269343 -19.33800544 7.65034996 -19.4375 11 C-19.46457031 12.17949219 -19.49164063 13.35898437 -19.51953125 14.57421875 C-19.55433594 15.47785156 -19.58914063 16.38148438 -19.625 17.3125 C-19.02171875 17.168125 -18.4184375 17.02375 -17.796875 16.875 C-16.99765625 16.689375 -16.1984375 16.50375 -15.375 16.3125 C-14.19164062 16.0340625 -14.19164062 16.0340625 -12.984375 15.75 C-10.625 15.3125 -10.625 15.3125 -6.625 15.3125 C-7.285 11.3525 -7.945 7.3925 -8.625 3.3125 C-4.08978873 -0.08890845 -4.08978873 -0.08890845 0 0 Z " fill="#FD4545" transform="translate(334.625,366.6875)"/>
<path d="M0 0 C3.29817031 2.63853625 4.76729042 4.27449365 6.0625 8.3125 C5.98225259 13.04709701 4.69436506 16.14253947 2 20 C-0.75 22.5 -0.75 22.5 -3 24 C-2.18595703 24.76183594 -2.18595703 24.76183594 -1.35546875 25.5390625 C6.24497258 32.85191956 6.24497258 32.85191956 8 38 C7.875 40.25 7.875 40.25 7 42 C3.74327541 44.17114973 2.77429726 44.45522059 -1 44 C-6.66169548 40.60734625 -10.40594541 35.37008997 -13.7734375 29.8203125 C-14.88104236 27.85454239 -14.88104236 27.85454239 -17 27 C-17.03738281 27.90363281 -17.07476562 28.80726563 -17.11328125 29.73828125 C-17.17902344 30.91777344 -17.24476562 32.09726562 -17.3125 33.3125 C-17.37050781 34.48425781 -17.42851563 35.65601563 -17.48828125 36.86328125 C-18 40 -18 40 -19.3203125 41.92578125 C-21 43 -21 43 -24.5625 42.875 C-28 42 -28 42 -30 39 C-30.21118164 36.00073242 -30.21118164 36.00073242 -30.16015625 32.35546875 C-30.14919922 31.03869141 -30.13824219 29.72191406 -30.12695312 28.36523438 C-30.10618774 26.97264534 -30.08469682 25.58006695 -30.0625 24.1875 C-30.03475127 22.12950937 -30.01000787 20.07159749 -29.99131775 18.01350403 C-29.97355697 16.13807886 -29.94614264 14.26275246 -29.91821289 12.38745117 C-29.996242 9.15564858 -30.44737697 6.17794053 -31 3 C-30.5625 0.625 -30.5625 0.625 -30 -1 C-20.25220501 -3.73622315 -9.00704053 -5.37057733 0 0 Z M-16 7 C-17.1577506 10.47325181 -17.06866652 13.36067448 -17 17 C-13.23840019 16.47755558 -10.67808998 15.7772785 -8 13 C-7.58282721 10.41537838 -7.58282721 10.41537838 -8 8 C-9.18424326 6.58422523 -9.18424326 6.58422523 -12.5625 6.9375 C-14.2640625 6.9684375 -14.2640625 6.9684375 -16 7 Z " fill="#FD4343" transform="translate(87,371)"/>
<path d="M0 0 C5.69928512 -0.36378416 11.09346576 -0.1851058 16 3 C17.36938477 5.39208984 17.36938477 5.39208984 18.50390625 8.3359375 C19.12990723 9.95145508 19.12990723 9.95145508 19.76855469 11.59960938 C21.72209377 16.99391792 23.56889276 22.40927104 25.3125 27.875 C25.67150391 28.96296875 26.03050781 30.0509375 26.40039062 31.171875 C26.73876953 32.22632813 27.07714844 33.28078125 27.42578125 34.3671875 C27.72911377 35.30675293 28.03244629 36.24631836 28.3449707 37.21435547 C29.05822011 40.2475928 29.18434203 42.89443817 29 46 C27.34763915 47.65236085 25.45786456 47.32780449 23.1875 47.4375 C18.39194736 47.38261528 18.39194736 47.38261528 15.375 44.4375 C13.87297523 40.68243807 13.67944196 38.00697556 14 34 C5.69960555 34.82270744 5.69960555 34.82270744 -0.9765625 39.203125 C-2.17824783 41.43783806 -3.18008972 43.60063065 -4 46 C-10.40504648 46.48339973 -10.40504648 46.48339973 -13 44.375 C-14.62850689 40.50729613 -13.43148776 37.14012342 -11.984375 33.31640625 C-11.57703125 32.40761719 -11.1696875 31.49882812 -10.75 30.5625 C-7.71199918 23.50309926 -5.36294622 16.30808108 -3 9 C-2.39799235 7.18678175 -1.79422971 5.37414364 -1.1875 3.5625 C-0.5996875 1.7990625 -0.5996875 1.7990625 0 0 Z M6 18 C5.67 20.31 5.34 22.62 5 25 C6.65 25 8.3 25 10 25 C9.67 23.02 9.34 21.04 9 19 C8.01 18.67 7.02 18.34 6 18 Z " fill="#FD4343" transform="translate(359,367)"/>
<path d="M0 0 C6.45267736 4.55483108 8.48757884 17.00161961 10.875 24.125 C11.28621094 25.31351562 11.69742188 26.50203125 12.12109375 27.7265625 C12.50910156 28.8815625 12.89710938 30.0365625 13.296875 31.2265625 C13.6484668 32.26377441 14.00005859 33.30098633 14.36230469 34.36962891 C15.2129887 37.86113673 15.32465094 40.91896806 15.125 44.5 C13.47263915 46.15236085 11.58286456 45.82780449 9.3125 45.9375 C4.51694736 45.88261528 4.51694736 45.88261528 1.5 42.9375 C-0.00202477 39.18243807 -0.19555804 36.50697556 0.125 32.5 C-8.00700248 33.3007016 -8.00700248 33.3007016 -14.59375 37.4453125 C-15.53981231 39.44494419 -16.24823938 41.38230882 -16.875 43.5 C-17.875 44.5 -17.875 44.5 -21.3125 44.6875 C-24.875 44.5 -24.875 44.5 -26.875 42.5 C-27.36823892 37.126984 -26.33506781 33.45808909 -24.1875 28.5625 C-21.85806341 23.07402167 -19.82303993 17.57249536 -18.0625 11.875 C-17.8560083 11.21250244 -17.6495166 10.55000488 -17.43676758 9.86743164 C-16.5990422 7.11993165 -15.86301814 4.43213325 -15.36328125 1.6015625 C-15.20214844 0.90804688 -15.04101562 0.21453125 -14.875 -0.5 C-10.55588984 -2.65955508 -4.61081869 -0.80188151 0 0 Z M-6.875 16.5 C-7.535 18.81 -8.195 21.12 -8.875 23.5 C-7.225 23.5 -5.575 23.5 -3.875 23.5 C-4.21727572 20.52934491 -4.21727572 20.52934491 -4.875 17.5 C-5.535 17.17 -6.195 16.84 -6.875 16.5 Z " fill="#FD4242" transform="translate(206.875,368.5)"/>
<path d="M0 0 C2.9150488 2.73837918 2.9180171 5.03646175 3.0625 8.9375 C1.03461505 10.96538495 -3.01357982 10.30607244 -5.8125 10.4375 C-11.45526006 10.66277338 -11.45526006 10.66277338 -16.9375 11.9375 C-16.9375 13.5875 -16.9375 15.2375 -16.9375 16.9375 C-15.98488281 16.83050781 -15.03226563 16.72351563 -14.05078125 16.61328125 C-12.79652344 16.49339844 -11.54226562 16.37351562 -10.25 16.25 C-9.00863281 16.12238281 -7.76726562 15.99476563 -6.48828125 15.86328125 C-2.60174367 15.94451801 -0.88649903 16.43531901 2.0625 18.9375 C2.375 22.625 2.375 22.625 2.0625 25.9375 C-0.234037 27.0857685 -1.52063167 27.05311175 -4.0703125 27.03515625 C-4.87597656 27.03193359 -5.68164062 27.02871094 -6.51171875 27.02539062 C-7.35347656 27.01701172 -8.19523437 27.00863281 -9.0625 27 C-9.91199219 26.99548828 -10.76148437 26.99097656 -11.63671875 26.98632812 C-13.73700909 26.97452874 -15.8372633 26.95659306 -17.9375 26.9375 C-17.6075 29.2475 -17.2775 31.5575 -16.9375 33.9375 C-15.75671875 33.87949219 -14.5759375 33.82148438 -13.359375 33.76171875 C-11.80212289 33.71481357 -10.24482799 33.66931421 -8.6875 33.625 C-7.91019531 33.58310547 -7.13289063 33.54121094 -6.33203125 33.49804688 C-0.54823773 33.37446154 -0.54823773 33.37446154 2.61328125 36.2890625 C4.0625 38.9375 4.0625 38.9375 4 41.625 C3.0625 43.9375 3.0625 43.9375 0.0625 45.9375 C-2.6171875 46.19628906 -2.6171875 46.19628906 -5.8125 46.203125 C-6.96234375 46.20570313 -8.1121875 46.20828125 -9.296875 46.2109375 C-10.49828125 46.20320313 -11.6996875 46.19546875 -12.9375 46.1875 C-14.73960938 46.19910156 -14.73960938 46.19910156 -16.578125 46.2109375 C-18.30289063 46.20707031 -18.30289063 46.20707031 -20.0625 46.203125 C-21.64417969 46.19974121 -21.64417969 46.19974121 -23.2578125 46.19628906 C-25.9375 45.9375 -25.9375 45.9375 -28.9375 43.9375 C-29.19242834 41.40585078 -29.26204936 39.12130489 -29.1953125 36.59375 C-29.18538773 35.50640564 -29.18538773 35.50640564 -29.17526245 34.39709473 C-29.15181727 32.07680207 -29.10810225 29.75745422 -29.0625 27.4375 C-29.02745998 25.1176589 -28.9966629 22.79787075 -28.97116089 20.47790527 C-28.95416125 19.03323674 -28.93100068 17.58862525 -28.90115356 16.14416504 C-28.78295726 12.4173404 -28.78295726 12.4173404 -29.9375 8.9375 C-30.0625 5.375 -30.0625 5.375 -29.9375 1.9375 C-27.79049742 -0.20950258 -23.35044333 0.19304026 -20.375 -0.125 C-19.19454102 -0.26131836 -19.19454102 -0.26131836 -17.99023438 -0.40039062 C-5.03437128 -1.8209428 -5.03437128 -1.8209428 0 0 Z " fill="#FD4E4D" transform="translate(127.9375,368.0625)"/>
<path d="M0 0 C3.04057572 2.64397889 4.72372114 4.17116342 6 8 C6.46796069 15.13640055 5.4248745 19.19225058 0.625 24.75 C-4.6895774 29.30535205 -9.27822122 29.26359917 -16 29 C-15.938125 30.794375 -15.938125 30.794375 -15.875 32.625 C-15.86148292 36.42329953 -16.57990247 39.44975618 -18 43 C-21.25 43.75 -21.25 43.75 -25 44 C-27.21435547 42.45727539 -27.21435547 42.45727539 -29 40 C-29.42236328 36.74780273 -29.42236328 36.74780273 -29.3203125 32.93359375 C-29.30990936 32.25829117 -29.29950623 31.58298859 -29.28878784 30.88722229 C-29.25326264 28.73642491 -29.19094841 26.58756259 -29.125 24.4375 C-29.06969104 22.28405782 -29.02028287 20.13089128 -28.9826355 17.97706604 C-28.9469886 16.02536195 -28.89217887 14.07403598 -28.83642578 12.12280273 C-28.74233471 8.83354599 -28.74233471 8.83354599 -31 6 C-31.125 2.8125 -31.125 2.8125 -31 0 C-20.99352123 -3.3689147 -9.51225755 -5.74698894 0 0 Z M-16 8 C-16.07244053 10.01964199 -16.08377188 12.04167124 -16.0625 14.0625 C-16.05347656 15.16722656 -16.04445313 16.27195312 -16.03515625 17.41015625 C-16.02355469 18.26480469 -16.01195312 19.11945313 -16 20 C-11.72497342 19.28395077 -9.62975527 18.60373871 -7 15 C-6.4161804 11.9149255 -6.4161804 11.9149255 -7 9 C-9.63571976 7.24285349 -13.27680928 5.27680928 -16 8 Z " fill="#FD4545" transform="translate(291,370)"/>
<path d="M0 0 C1 1 1 1 1.1328125 3.88671875 C1.0880829 25.64766839 1.0880829 25.64766839 -1 34 C5.6 34 12.2 34 19 34 C20.50662097 37.01324195 20.17770373 39.68286377 20 43 C16.68619546 46.31380454 12.47558574 45.2966586 7.96875 45.32226562 C6.6590625 45.31904297 5.349375 45.31582031 4 45.3125 C2.6903125 45.32861328 1.380625 45.34472656 0.03125 45.36132812 C-1.2165625 45.36197266 -2.464375 45.36261719 -3.75 45.36328125 C-4.89984375 45.36626221 -6.0496875 45.36924316 -7.234375 45.37231445 C-8.14703125 45.24945068 -9.0596875 45.12658691 -10 45 C-12.46661535 41.30007697 -12.23877479 38.53314983 -12.16015625 34.26171875 C-12.15495468 33.50333206 -12.14975311 32.74494537 -12.14439392 31.96357727 C-12.12658703 29.53802322 -12.09544781 27.11289199 -12.0625 24.6875 C-12.0347843 22.2728597 -12.01004497 19.85828498 -11.99131775 17.44355774 C-11.9791709 15.94202669 -11.96167831 14.44052623 -11.93800354 12.93913269 C-11.89926113 8.84244344 -12.19643893 5.01780535 -13 1 C-8.24895289 -0.96994636 -5.02174105 -1.08312062 0 0 Z " fill="#FD4746" transform="translate(238,368)"/>
<path d="M0 0 C0.66 0.66 1.32 1.32 2 2 C3.65 1.34 5.3 0.68 7 0 C7 0.99 7 1.98 7 3 C7.65742187 2.84144531 8.31484375 2.68289063 8.9921875 2.51953125 C12.70794658 1.87771832 16.36523446 1.73886292 20.125 1.6875 C21.19814453 1.64399414 21.19814453 1.64399414 22.29296875 1.59960938 C27.50022723 1.53634362 27.50022723 1.53634362 30 3.85546875 C31 6 31 6 30.875 8.625 C30 11 30 11 27 13 C25.68 13 24.36 13 23 13 C23 12.34 23 11.68 23 11 C22.30849854 11.00523682 21.61699707 11.01047363 20.90454102 11.01586914 C17.79053648 11.036575 14.67654639 11.04963963 11.5625 11.0625 C10.47388672 11.07087891 9.38527344 11.07925781 8.26367188 11.08789062 C7.22919922 11.09111328 6.19472656 11.09433594 5.12890625 11.09765625 C3.69140015 11.10551147 3.69140015 11.10551147 2.22485352 11.11352539 C0 11 0 11 -1 10 C-0.91036938 8.30858344 -0.75422324 6.62040398 -0.5625 4.9375 C-0.46066406 4.01839844 -0.35882813 3.09929687 -0.25390625 2.15234375 C-0.17011719 1.44207031 -0.08632812 0.73179687 0 0 Z " fill="#FD3B3B" transform="translate(101,401)"/>
<path d="M0 0 C0.66 0.66 1.32 1.32 2 2 C3.65 1.34 5.3 0.68 7 0 C7 0.99 7 1.98 7 3 C7.99 3.33 8.98 3.66 10 4 C8.125 9.875 8.125 9.875 7 11 C3.5 11.125 3.5 11.125 0 11 C-0.33 10.67 -0.66 10.34 -1 10 C-0.91036938 8.30858344 -0.75422324 6.62040398 -0.5625 4.9375 C-0.46066406 4.01839844 -0.35882813 3.09929687 -0.25390625 2.15234375 C-0.17011719 1.44207031 -0.08632812 0.73179687 0 0 Z " fill="#FD3130" transform="translate(101,401)"/>
<path d="M0 0 C0.33 0.66 0.66 1.32 1 2 C1.66 2.33 2.32 2.66 3 3 C3 5.97 3 8.94 3 12 C3.66 12.33 4.32 12.66 5 13 C4.67 15.31 4.34 17.62 4 20 C0.67554357 13.93775593 -0.36108506 6.86061613 0 0 Z " fill="#FD7271" transform="translate(48,205)"/>
<path d="M0 0 C0 0.33 0 0.66 0 1 C-2.05078125 1.22786458 -4.1015625 1.45572917 -6.15234375 1.68359375 C-8.01140229 1.81886614 -8.01140229 1.81886614 -9 3 C-9.23075082 4.34747084 -9.41153063 5.70377565 -9.5625 7.0625 C-9.7790625 9.0115625 -9.7790625 9.0115625 -10 11 C-12 8 -12 8 -11.8125 4.4375 C-10.15228217 -2.58649853 -5.72698162 -0.93884945 0 0 Z " fill="#FD8383" transform="translate(147,369)"/>
<path d="M0 0 C1.98 0.99 1.98 0.99 4 2 C3.01 2.495 3.01 2.495 2 3 C2.16371094 3.56203125 2.32742187 4.1240625 2.49609375 4.703125 C3.02864997 7.13059056 3.09898681 9.26889681 3.0625 11.75 C3.05347656 12.54921875 3.04445312 13.3484375 3.03515625 14.171875 C3.01775391 15.07679688 3.01775391 15.07679688 3 16 C2.34 15.67 1.68 15.34 1 15 C0.68758629 12.45058627 0.48696579 9.99638487 0.375 7.4375 C0.33632812 6.72658203 0.29765625 6.01566406 0.2578125 5.28320312 C0.16328217 3.52257575 0.08054183 1.76132272 0 0 Z " fill="#FD7777" transform="translate(247,259)"/>
<path d="M0 0 C0.66 0.33 1.32 0.66 2 1 C1.67 1.66 1.34 2.32 1 3 C0.01 3 -0.98 3 -2 3 C-2 3.66 -2 4.32 -2 5 C-2.66 5 -3.32 5 -4 5 C-4.33 5.66 -4.66 6.32 -5 7 C-6.97888961 7.72693904 -8.97954558 8.39816251 -11 9 C-7.56638098 5.36440339 -4.2026393 2.63886654 0 0 Z " fill="#FD7574" transform="translate(127,33)"/>
<path d="M0 0 C0.66 0.33 1.32 0.66 2 1 C-0.31 3.97 -2.62 6.94 -5 10 C-6.32 9.67 -7.64 9.34 -9 9 C-6.03 6.03 -3.06 3.06 0 0 Z " fill="#FD7C7B" transform="translate(104,50)"/>
<path d="M0 0 C1.18414294 3.55242882 0.69535532 4.69830562 -0.4375 8.1875 C-0.72496094 9.08855469 -1.01242187 9.98960937 -1.30859375 10.91796875 C-1.53675781 11.60503906 -1.76492188 12.29210937 -2 13 C-2.33 13 -2.66 13 -3 13 C-3.08047959 9.4588979 -2.97311528 6.40590348 -2 3 C-2 2.34 -2 1.68 -2 1 C-1.34 0.67 -0.68 0.34 0 0 Z " fill="#FD7C7C" transform="translate(390,221)"/>
<path d="M0 0 C1.11329523 3.33988568 1.01098929 5.6300357 0 9 C-1.5625 11.3125 -1.5625 11.3125 -3 13 C-2.45144652 8.428721 -1.58255197 4.32564205 0 0 Z " fill="#FD7B7B" transform="translate(55,124)"/>
<path d="M0 0 C0.66 0.99 1.32 1.98 2 3 C0.68 5.31 -0.64 7.62 -2 10 C-2.66 10 -3.32 10 -4 10 C-2.8905928 6.51329166 -1.73662334 3.22515763 0 0 Z " fill="#FD5E5E" transform="translate(67,97)"/>
<path d="M0 0 C0.66 0 1.32 0 2 0 C2 2.31 2 4.62 2 7 C2.66 7 3.32 7 4 7 C3.67 7.66 3.34 8.32 3 9 C0.9375 9.625 0.9375 9.625 -1 10 C-0.9278125 9.36191406 -0.855625 8.72382813 -0.78125 8.06640625 C-0.6884375 7.24011719 -0.595625 6.41382813 -0.5 5.5625 C-0.4071875 4.73878906 -0.314375 3.91507812 -0.21875 3.06640625 C-0.05543721 1.5360501 -0.05543721 1.5360501 0 0 Z " fill="#FD6D6D" transform="translate(283,378)"/>
<path d="M0 0 C0.185625 0.9590625 0.185625 0.9590625 0.375 1.9375 C0.684375 2.9584375 0.684375 2.9584375 1 4 C1.66 4.33 2.32 4.66 3 5 C2.01 5.66 1.02 6.32 0 7 C-1.19232613 9.05003955 -1.19232613 9.05003955 -2 11 C-3 9 -3 9 -2.44140625 6.8359375 C-2.15136719 6.02382813 -1.86132812 5.21171875 -1.5625 4.375 C-1.27503906 3.55773437 -0.98757812 2.74046875 -0.69140625 1.8984375 C-0.46324219 1.27195312 -0.23507813 0.64546875 0 0 Z " fill="#FD8383" transform="translate(190,377)"/>
<path d="M0 0 C0.99 0.33 1.98 0.66 3 1 C2.34 3.64 1.68 6.28 1 9 C-0.61949011 6.42786866 -1.04408751 5.32330841 -0.625 2.25 C-0.41875 1.5075 -0.2125 0.765 0 0 Z " fill="#FD6262" transform="translate(384,234)"/>
<path d="M0 0 C0.66 1.32 1.32 2.64 2 4 C0.625 7.25 0.625 7.25 -1 10 C-1.66 10 -2.32 10 -3 10 C-2.01 6.7 -1.02 3.4 0 0 Z " fill="#FD7F7E" transform="translate(341,189)"/>
</svg>
